<svg width="393" height="92" viewBox="0 0 393 92" fill="none" xmlns="http://www.w3.org/2000/svg">
<path d="M54.369 90H43.489V47.888C43.489 47.0347 43.4037 45.6693 43.233 43.792C43.0623 41.9147 42.5077 40.0373 41.569 38.16C40.7157 36.2827 39.3077 34.6613 37.345 33.296C35.3823 31.8453 32.609 31.12 29.025 31.12C26.8063 31.12 24.6303 31.504 22.497 32.272C20.449 33.04 18.6143 34.2347 16.993 35.856C15.3717 37.4773 14.0917 39.4827 13.153 41.872C12.2143 44.2613 11.745 47.12 11.745 50.448V90H0.865001V26H11.745V34.192H12.257L14.305 32.144C17.2917 29.1573 20.321 27.152 23.393 26.128C26.465 25.0187 29.2383 24.5067 31.713 24.592C37.345 24.592 41.697 25.5733 44.769 27.536C47.841 29.4133 50.0597 31.6747 51.425 34.32C52.8757 36.88 53.729 39.5253 53.985 42.256C54.241 44.9013 54.369 46.992 54.369 48.528V90ZM75.24 26H86.12V68.24C86.12 69.0933 86.2053 70.4587 86.376 72.336C86.5467 74.128 87.1013 75.9627 88.04 77.84C89.064 79.7173 90.5573 81.3813 92.52 82.832C94.568 84.1973 97.384 84.88 100.968 84.88C103.187 84.88 105.32 84.496 107.368 83.728C109.416 82.96 111.208 81.808 112.744 80.272C114.28 78.6507 115.517 76.6453 116.456 74.256C117.395 71.8667 117.864 69.008 117.864 65.68V26H128.744V90H117.864V81.936H117.352L115.304 83.984C112.317 86.9707 109.331 88.976 106.344 90C103.443 91.1093 100.755 91.6213 98.28 91.536C92.648 91.536 88.2533 90.5973 85.096 88.72C82.024 86.7573 79.7627 84.496 78.312 81.936C76.8613 79.2907 75.9653 76.6453 75.624 74C75.368 71.2693 75.24 69.136 75.24 67.6V26ZM141.935 26H153.199L174.575 77.328H175.343L196.079 26H202.095L176.239 90H168.559L141.935 26ZM277.329 58.128C277.329 62.5653 276.561 66.832 275.025 70.928C273.489 74.9387 271.27 78.48 268.369 81.552C265.553 84.624 262.097 87.056 258.001 88.848C253.99 90.64 249.468 91.536 244.433 91.536C239.313 91.536 234.662 90.64 230.481 88.848C226.385 86.9707 222.886 84.496 219.985 81.424C217.169 78.352 214.95 74.8107 213.329 70.8C211.793 66.704 211.025 62.48 211.025 58.128C211.025 53.6907 211.793 49.4667 213.329 45.456C214.95 41.36 217.169 37.776 219.985 34.704C222.886 31.632 226.385 29.2 230.481 27.408C234.662 25.5307 239.313 24.592 244.433 24.592C249.468 24.592 253.99 25.5307 258.001 27.408C262.097 29.2 265.553 31.632 268.369 34.704C271.27 37.776 273.489 41.36 275.025 45.456C276.561 49.4667 277.329 53.6907 277.329 58.128ZM265.169 58.128C265.169 52.1547 264.529 47.3333 263.249 43.664C261.969 39.9093 260.305 37.008 258.257 34.96C256.209 32.912 253.948 31.5467 251.473 30.864C248.998 30.096 246.609 29.712 244.305 29.712C242.001 29.712 239.612 30.096 237.137 30.864C234.662 31.5467 232.358 32.912 230.225 34.96C228.177 37.008 226.47 39.9093 225.105 43.664C223.825 47.3333 223.185 52.1547 223.185 58.128C223.185 64.016 223.825 68.8373 225.105 72.592C226.47 76.2613 228.177 79.12 230.225 81.168C232.358 83.216 234.662 84.624 237.137 85.392C239.612 86.0747 242.001 86.416 244.305 86.416C246.609 86.416 248.998 86.0747 251.473 85.392C253.948 84.624 256.209 83.216 258.257 81.168C260.305 79.12 261.969 76.2613 263.249 72.592C264.529 68.8373 265.169 64.016 265.169 58.128ZM307.43 0.399994V90H296.55V0.399994H307.43ZM392.954 58.128C392.954 62.5653 392.186 66.832 390.65 70.928C389.114 74.9387 386.895 78.48 383.994 81.552C381.178 84.624 377.722 87.056 373.626 88.848C369.615 90.64 365.093 91.536 360.058 91.536C354.938 91.536 350.287 90.64 346.106 88.848C342.01 86.9707 338.511 84.496 335.61 81.424C332.794 78.352 330.575 74.8107 328.954 70.8C327.418 66.704 326.65 62.48 326.65 58.128C326.65 53.6907 327.418 49.4667 328.954 45.456C330.575 41.36 332.794 37.776 335.61 34.704C338.511 31.632 342.01 29.2 346.106 27.408C350.287 25.5307 354.938 24.592 360.058 24.592C365.093 24.592 369.615 25.5307 373.626 27.408C377.722 29.2 381.178 31.632 383.994 34.704C386.895 37.776 389.114 41.36 390.65 45.456C392.186 49.4667 392.954 53.6907 392.954 58.128ZM380.794 58.128C380.794 52.1547 380.154 47.3333 378.874 43.664C377.594 39.9093 375.93 37.008 373.882 34.96C371.834 32.912 369.573 31.5467 367.098 30.864C364.623 30.096 362.234 29.712 359.93 29.712C357.626 29.712 355.237 30.096 352.762 30.864C350.287 31.5467 347.983 32.912 345.85 34.96C343.802 37.008 342.095 39.9093 340.73 43.664C339.45 47.3333 338.81 52.1547 338.81 58.128C338.81 64.016 339.45 68.8373 340.73 72.592C342.095 76.2613 343.802 79.12 345.85 81.168C347.983 83.216 350.287 84.624 352.762 85.392C355.237 86.0747 357.626 86.416 359.93 86.416C362.234 86.416 364.623 86.0747 367.098 85.392C369.573 84.624 371.834 83.216 373.882 81.168C375.93 79.12 377.594 76.2613 378.874 72.592C380.154 68.8373 380.794 64.016 380.794 58.128Z" fill="#003C3C"/>
</svg>
