<svg width="485" height="791" viewBox="0 0 485 791" fill="none" xmlns="http://www.w3.org/2000/svg">
<path d="M199.2 274H165.2V142.4C165.2 139.733 164.933 135.467 164.4 129.6C163.867 123.733 162.133 117.867 159.2 112C156.533 106.133 152.133 101.067 146 96.8C139.867 92.2667 131.2 90 120 90C113.067 90 106.267 91.2 99.6 93.6C93.2 96 87.4667 99.7333 82.4 104.8C77.3333 109.867 73.3333 116.133 70.4 123.6C67.4667 131.067 66 140 66 150.4V274H32V74H66V99.6H67.6L74 93.2C83.3333 83.8667 92.8 77.6 102.4 74.4C112 70.9333 120.667 69.3333 128.4 69.6C146 69.6 159.6 72.6667 169.2 78.8C178.8 84.6667 185.733 91.7333 190 100C194.533 108 197.2 116.267 198 124.8C198.8 133.067 199.2 139.6 199.2 144.4V274ZM256.422 74H290.422V206C290.422 208.667 290.689 212.933 291.222 218.8C291.755 224.4 293.489 230.133 296.422 236C299.622 241.867 304.289 247.067 310.422 251.6C316.822 255.867 325.622 258 336.822 258C343.755 258 350.422 256.8 356.822 254.4C363.222 252 368.822 248.4 373.622 243.6C378.422 238.533 382.289 232.267 385.222 224.8C388.155 217.333 389.622 208.4 389.622 198V74H423.622V274H389.622V248.8H388.022L381.622 255.2C372.289 264.533 362.955 270.8 353.622 274C344.555 277.467 336.155 279.067 328.422 278.8C310.822 278.8 297.089 275.867 287.222 270C277.622 263.867 270.555 256.8 266.022 248.8C261.489 240.533 258.689 232.267 257.622 224C256.822 215.467 256.422 208.8 256.422 204V74Z" fill="#003C3C"/>
<path d="M97 506V786H63V506H97ZM356.263 686.4C356.263 700.267 353.863 713.6 349.063 726.4C344.263 738.933 337.329 750 328.263 759.6C319.463 769.2 308.663 776.8 295.863 782.4C283.329 788 269.196 790.8 253.463 790.8C237.463 790.8 222.929 788 209.863 782.4C197.063 776.533 186.129 768.8 177.063 759.2C168.263 749.6 161.329 738.533 156.263 726C151.463 713.2 149.063 700 149.063 686.4C149.063 672.533 151.463 659.333 156.263 646.8C161.329 634 168.263 622.8 177.063 613.2C186.129 603.6 197.063 596 209.863 590.4C222.929 584.533 237.463 581.6 253.463 581.6C269.196 581.6 283.329 584.533 295.863 590.4C308.663 596 319.463 603.6 328.263 613.2C337.329 622.8 344.263 634 349.063 646.8C353.863 659.333 356.263 672.533 356.263 686.4ZM318.263 686.4C318.263 667.733 316.263 652.667 312.263 641.2C308.263 629.467 303.063 620.4 296.663 614C290.263 607.6 283.196 603.333 275.463 601.2C267.729 598.8 260.263 597.6 253.063 597.6C245.863 597.6 238.396 598.8 230.663 601.2C222.929 603.333 215.729 607.6 209.063 614C202.663 620.4 197.329 629.467 193.063 641.2C189.063 652.667 187.063 667.733 187.063 686.4C187.063 704.8 189.063 719.867 193.063 731.6C197.329 743.067 202.663 752 209.063 758.4C215.729 764.8 222.929 769.2 230.663 771.6C238.396 773.733 245.863 774.8 253.063 774.8C260.263 774.8 267.729 773.733 275.463 771.6C283.196 769.2 290.263 764.8 296.663 758.4C303.063 752 308.263 743.067 312.263 731.6C316.263 719.867 318.263 704.8 318.263 686.4Z" fill="#003C3C"/>
<path d="M29 296H64.2L131 456.4H133.4L198.2 296H217L136.2 496H112.2L29 296ZM444.106 396.4C444.106 410.267 441.706 423.6 436.906 436.4C432.106 448.933 425.173 460 416.106 469.6C407.306 479.2 396.506 486.8 383.706 492.4C371.173 498 357.04 500.8 341.306 500.8C325.306 500.8 310.773 498 297.706 492.4C284.906 486.533 273.973 478.8 264.906 469.2C256.106 459.6 249.173 448.533 244.106 436C239.306 423.2 236.906 410 236.906 396.4C236.906 382.533 239.306 369.333 244.106 356.8C249.173 344 256.106 332.8 264.906 323.2C273.973 313.6 284.906 306 297.706 300.4C310.773 294.533 325.306 291.6 341.306 291.6C357.04 291.6 371.173 294.533 383.706 300.4C396.506 306 407.306 313.6 416.106 323.2C425.173 332.8 432.106 344 436.906 356.8C441.706 369.333 444.106 382.533 444.106 396.4ZM406.106 396.4C406.106 377.733 404.106 362.667 400.106 351.2C396.106 339.467 390.906 330.4 384.506 324C378.106 317.6 371.04 313.333 363.306 311.2C355.573 308.8 348.106 307.6 340.906 307.6C333.706 307.6 326.24 308.8 318.506 311.2C310.773 313.333 303.573 317.6 296.906 324C290.506 330.4 285.173 339.467 280.906 351.2C276.906 362.667 274.906 377.733 274.906 396.4C274.906 414.8 276.906 429.867 280.906 441.6C285.173 453.067 290.506 462 296.906 468.4C303.573 474.8 310.773 479.2 318.506 481.6C326.24 483.733 333.706 484.8 340.906 484.8C348.106 484.8 355.573 483.733 363.306 481.6C371.04 479.2 378.106 474.8 384.506 468.4C390.906 462 396.106 453.067 400.106 441.6C404.106 429.867 406.106 414.8 406.106 396.4Z" fill="#003C3C"/>
</svg>
