<svg width="28" height="33" viewBox="0 0 28 33" fill="none" xmlns="http://www.w3.org/2000/svg">
    <path fill-rule="evenodd" clip-rule="evenodd"
          d="M10.5384 7.3804C10.5384 5.46168 12.0939 3.90625 14.0126 3.90625C15.9313 3.90625 17.4867 5.46168 17.4867 7.3804V7.53833H10.5384V7.3804ZM7.53842 10.5383V12.3545C7.53842 13.183 8.21 13.8545 9.03842 13.8545C9.86685 13.8545 10.5384 13.183 10.5384 12.3545V10.5383H17.4867V12.3545C17.4867 13.183 18.1583 13.8545 18.9867 13.8545C19.8151 13.8545 20.4867 13.183 20.4867 12.3545V10.5383H22.5718L23.9991 29.093H4.02607L5.45335 10.5383H7.53842ZM7.53842 7.53833V7.3804C7.53842 3.80482 10.437 0.90625 14.0126 0.90625C17.5881 0.90625 20.4867 3.80482 20.4867 7.3804V7.53833H23.9609C24.7447 7.53833 25.3964 8.14179 25.4565 8.92329L27.1145 30.4779C27.1466 30.8945 27.0034 31.3056 26.7195 31.6121C26.4356 31.9187 26.0368 32.093 25.6189 32.093H2.40625C1.98844 32.093 1.58956 31.9187 1.30567 31.6121C1.02179 31.3056 0.878627 30.8945 0.910672 30.4779L2.56872 8.92329C2.62884 8.14179 3.2805 7.53833 4.0643 7.53833H7.53842Z"
          fill="#003C3C"/>
</svg>
