<svg width="28" height="32" viewBox="0 0 28 32" fill="none" xmlns="http://www.w3.org/2000/svg">
<path fill-rule="evenodd" clip-rule="evenodd" d="M14 3.33317C10.5022 3.33317 7.66662 6.1687 7.66662 9.66651C7.66662 13.1643 10.5022 15.9998 14 15.9998C17.4978 15.9998 20.3333 13.1643 20.3333 9.66651C20.3333 6.1687 17.4978 3.33317 14 3.33317ZM19.7649 17.218C22.0353 15.4821 23.5 12.7453 23.5 9.66651C23.5 4.4198 19.2467 0.166504 14 0.166504C8.75325 0.166504 4.49996 4.4198 4.49996 9.66651C4.49996 12.7453 5.96456 15.4821 8.23506 17.218C6.64306 17.9223 5.17842 18.9188 3.92369 20.1736C2.9548 21.1425 2.13975 22.2366 1.49443 23.4179C0.30358 25.5979 0.789229 27.8206 2.13033 29.3923C3.42139 30.9053 5.48958 31.8332 7.66662 31.8332H20.3333C22.5103 31.8332 24.5785 30.9053 25.8696 29.3923C27.2107 27.8206 27.6963 25.5979 26.5055 23.4179C25.8602 22.2366 25.0451 21.1425 24.0762 20.1736C22.8215 18.9188 21.3569 17.9223 19.7649 17.218ZM14 19.1665C11.0605 19.1665 8.24139 20.3342 6.16286 22.4127C5.40919 23.1664 4.77536 24.0173 4.27347 24.9361C3.78745 25.8258 3.94423 26.6395 4.53923 27.3368C5.18428 28.0928 6.34587 28.6665 7.66662 28.6665H20.3333C21.654 28.6665 22.8156 28.0928 23.4607 27.3368C24.0557 26.6395 24.2125 25.8258 23.7264 24.9361C23.2246 24.0173 22.5907 23.1664 21.8371 22.4127C19.7585 20.3342 16.9394 19.1665 14 19.1665Z" fill="#003C3C"/>
</svg>
