<svg width="32" height="28" viewBox="0 0 32 28" fill="none" xmlns="http://www.w3.org/2000/svg">
<path d="M27.7475 3.61466C25.0662 1.2417 21.6073 1.55675 19.0802 4.08388L15.9966 7.16068L12.9198 4.08388C10.3927 1.55675 6.92712 1.2417 4.25252 3.61466C3.57037 4.22037 3.01904 4.95892 2.63228 5.78513C2.24552 6.61133 2.03145 7.50778 2.00321 8.41959C1.97497 9.3314 2.13316 10.2394 2.46805 11.0879C2.80295 11.9365 3.30751 12.7078 3.95086 13.3545L15.9296 26.0036L16.1642 25.7623L16.238 25.836L28.0491 13.3545C28.6925 12.7078 29.197 11.9365 29.5319 11.0879C29.8668 10.2394 30.025 9.3314 29.9968 8.41959C29.9685 7.50778 29.7545 6.61133 29.3677 5.78513C28.981 4.95892 28.4296 4.22037 27.7475 3.61466Z" stroke="#003C3C" stroke-width="3" stroke-linecap="round" stroke-linejoin="round"/>
</svg>
