<svg width="16" height="16" viewBox="0 0 16 16" fill="none" xmlns="http://www.w3.org/2000/svg">
    <path d="M14.4324 13.3257L9.10422 8.00047L14.4324 2.71444C14.6994 2.40519 14.6849 1.94109 14.3992 1.64928C14.1134 1.35748 13.6527 1.33634 13.3418 1.60077L7.99808 6.84758L2.74783 1.56156C2.444 1.25748 1.95331 1.25748 1.64948 1.56156C1.50201 1.70882 1.41906 1.90928 1.41906 2.11839C1.41906 2.32751 1.50201 2.52797 1.64948 2.67523L6.89194 7.95341L1.56379 13.2316C1.41632 13.3789 1.33337 13.5793 1.33337 13.7884C1.33337 13.9975 1.41632 14.198 1.56379 14.3453C1.7108 14.4921 1.90981 14.5739 2.11686 14.5727C2.32011 14.5739 2.5158 14.4951 2.66214 14.3531L7.99808 9.05924L13.3418 14.4394C13.4888 14.5862 13.6878 14.668 13.8949 14.6668C14.0992 14.6659 14.2951 14.5843 14.4402 14.4394C14.5866 14.2911 14.6682 14.09 14.6667 13.8809C14.6652 13.6718 14.5809 13.4719 14.4324 13.3257Z"
          fill="#003C3C" stroke="#003C3C"/>
</svg>
